<?xml version="1.0" encoding="UTF-8"?>
<svg version="1.1" xmlns="http://www.w3.org/2000/svg" width="2000" height="1500">
<path d="M0 0 C660 0 1320 0 2000 0 C2000 495 2000 990 2000 1500 C1340 1500 680 1500 0 1500 C0 1005 0 510 0 0 Z " fill="#F5BA42" transform="translate(0,0)"/>
<path d="M0 0 C28.05 0 56.1 0 85 0 C85.33 166.98 85.66 333.96 86 506 C97.19119423 495.59688783 97.19119423 495.59688783 108.0390625 484.9296875 C109.90352277 483.09493974 111.82296435 481.38469572 113.8125 479.6875 C117.3889884 476.62499795 120.69389493 473.34719384 124 470 C127.82987057 466.12270804 131.72051313 462.43756384 135.875 458.90625 C138.69393932 456.37749561 141.33938837 453.69353999 144 451 C147.82988013 447.12272037 151.72051302 443.43756394 155.875 439.90625 C158.69393932 437.37749561 161.33938837 434.69353999 164 432 C167.82988013 428.12272037 171.72051302 424.43756394 175.875 420.90625 C178.69393932 418.37749561 181.33938837 415.69353999 184 413 C187.82988013 409.12272037 191.72051302 405.43756394 195.875 401.90625 C198.69393932 399.37749561 201.33938837 396.69353999 204 394 C207.82988013 390.12272037 211.72051302 386.43756394 215.875 382.90625 C218.69393932 380.37749561 221.33938837 377.69353999 224 375 C227.82988013 371.12272037 231.72051302 367.43756394 235.875 363.90625 C239.24392525 360.88412588 242.38337351 357.63683116 245.56274414 354.41772461 C248.97385898 350.98056658 252.47136672 347.71194067 256.18359375 344.59765625 C258.15905709 342.96305719 258.15905709 342.96305719 259.97563171 340.43562317 C264.31352621 336.94217418 267.79072089 337.3313694 273.20629883 337.43237305 C274.23115387 337.43164291 275.25600891 337.43091278 276.31192017 337.43016052 C279.69416513 337.43363963 283.07502732 337.47251814 286.45703125 337.51171875 C288.80400337 337.52104567 291.15098524 337.52816235 293.49797058 337.53315735 C299.67136573 337.55223636 305.8441715 337.60134609 312.01733398 337.65667725 C318.31811551 337.70784956 324.61899239 337.73066715 330.91992188 337.75585938 C343.28020669 337.80946302 355.64005431 337.89478765 368 338 C367.06216762 339.10382774 366.1229236 340.20645621 365.18310547 341.30859375 C364.66021942 341.92275146 364.13733337 342.53690918 363.59860229 343.16967773 C361.2189561 345.89425747 358.69376946 348.45482816 356.125 351 C355.60035156 351.52271484 355.07570313 352.04542969 354.53515625 352.58398438 C351.18010269 355.90194275 347.72064188 359.0374544 344.125 362.09375 C341.30606068 364.62250439 338.66061163 367.30646001 336 370 C332.17011987 373.87727963 328.27948698 377.56243606 324.125 381.09375 C321.30606068 383.62250439 318.66061163 386.30646001 316 389 C312.17011987 392.87727963 308.27948698 396.56243606 304.125 400.09375 C301.30606068 402.62250439 298.66061163 405.30646001 296 408 C292.17011987 411.87727963 288.27948698 415.56243606 284.125 419.09375 C281.30606068 421.62250439 278.66061163 424.30646001 276 427 C272.17011987 430.87727963 268.27948698 434.56243606 264.125 438.09375 C261.30606068 440.62250439 258.66061163 443.30646001 256 446 C252.17011987 449.87727963 248.27948698 453.56243606 244.125 457.09375 C241.30606068 459.62250439 238.66061163 462.30646001 236 465 C232.17011987 468.87727963 228.27948698 472.56243606 224.125 476.09375 C221.30606068 478.62250439 218.66061163 481.30646001 216 484 C212.17011987 487.87727963 208.27948698 491.56243606 204.125 495.09375 C201.30606068 497.62250439 198.66061163 500.30646001 196 503 C192.17011987 506.87727963 188.27948698 510.56243606 184.125 514.09375 C180.75771765 517.11440034 177.6171403 520.35799623 174.44384766 523.58007812 C170.9630322 527.0953351 167.37069148 530.38323728 163.5234375 533.5 C161.81243916 535.18467529 160.95324405 536.81037011 160 539 C165.37856703 545.93907971 170.78750995 552.83147058 176.5 559.5 C180.76881071 564.48420293 184.84882474 569.5881182 188.875 574.76953125 C191.99147918 578.7625202 195.20533621 582.65310563 198.5 586.5 C202.76875118 591.48425208 206.84882342 596.58811651 210.875 601.76953125 C213.99147918 605.7625202 217.20533621 609.65310563 220.5 613.5 C224.76875118 618.48425208 228.84882342 623.58811651 232.875 628.76953125 C235.99147918 632.7625202 239.20533621 636.65310563 242.5 640.5 C246.76875118 645.48425208 250.84882342 650.58811651 254.875 655.76953125 C257.99147918 659.7625202 261.20533621 663.65310563 264.5 667.5 C268.76875118 672.48425208 272.84882342 677.58811651 276.875 682.76953125 C279.99147918 686.7625202 283.20533621 690.65310563 286.5 694.5 C290.76875118 699.48425208 294.84882342 704.58811651 298.875 709.76953125 C301.99147918 713.7625202 305.20533621 717.65310563 308.5 721.5 C312.76875118 726.48425208 316.84882342 731.58811651 320.875 736.76953125 C323.99147918 740.7625202 327.20533621 744.65310563 330.5 748.5 C334.76875118 753.48425208 338.84882342 758.58811651 342.875 763.76953125 C345.99147918 767.7625202 349.20533621 771.65310563 352.5 775.5 C356.28188558 779.91578117 359.93258144 784.40924556 363.5 789 C367.11344264 793.64778577 370.80647056 798.20650445 374.625 802.6875 C375.30248291 803.48293213 375.30248291 803.48293213 375.99365234 804.29443359 C376.88764896 805.34362673 377.7816913 806.39278092 378.67578125 807.44189453 C380.84145458 809.99007432 382.9884119 812.55230452 385.125 815.125 C385.84945313 815.99382813 386.57390625 816.86265625 387.3203125 817.7578125 C389 820 389 820 390 823 C376.51767891 823.32522173 363.03629918 823.57355244 349.5508461 823.72537041 C343.2878535 823.79826061 337.02755514 823.89701261 330.76611328 824.05615234 C324.71635495 824.20893929 318.66917711 824.29211172 312.61763763 824.3282814 C310.31612274 824.35403425 308.01474008 824.40433041 305.71433258 824.48022079 C286.77788345 825.07975044 286.77788345 825.07975044 281.03430176 820.03839111 C278.37503072 817.20589419 276.21728662 814.16298704 274.18439484 810.85957718 C272.17363952 807.70256012 269.78356288 804.84824797 267.4375 801.9375 C266.52795316 800.77108398 265.6201566 799.60329903 264.71484375 798.43359375 C262.06217588 795.04731085 259.29814787 791.76640732 256.5 788.5 C252.23118745 783.51580328 248.15117385 778.41187999 244.125 773.23046875 C241.00852082 769.2374798 237.79466379 765.34689437 234.5 761.5 C230.23124882 756.51574792 226.15117658 751.41188349 222.125 746.23046875 C219.00852082 742.2374798 215.79466379 738.34689437 212.5 734.5 C208.23124882 729.51574792 204.15117658 724.41188349 200.125 719.23046875 C197.00852082 715.2374798 193.79466379 711.34689437 190.5 707.5 C186.23124882 702.51574792 182.15117658 697.41188349 178.125 692.23046875 C175.00852082 688.2374798 171.79466379 684.34689437 168.5 680.5 C164.23124882 675.51574792 160.15117658 670.41188349 156.125 665.23046875 C153.00852082 661.2374798 149.79466379 657.34689437 146.5 653.5 C142.23124882 648.51574792 138.15117658 643.41188349 134.125 638.23046875 C131.00852082 634.2374798 127.79466379 630.34689437 124.5 626.5 C120.23124882 621.51574792 116.15117658 616.41188349 112.125 611.23046875 C109.00742096 607.2360706 105.79157684 603.35264108 102.5 599.5 C96.83392498 592.80372952 91.419406 585.89742582 86 579 C85.67 659.52 85.34 740.04 85 823 C56.95 823 28.9 823 0 823 C0 551.41 0 279.82 0 0 Z " fill="#FEFEFD" transform="translate(1327,269)"/>
<path d="M0 0 C154.44 0 308.88 0 468 0 C468 46.86 468 93.72 468 142 C501.33 142 534.66 142 569 142 C569 234.07 569 326.14 569 421 C508.61 421 448.22 421 386 421 C386 328.93 386 236.86 386 142 C400.85 142 415.7 142 431 142 C431 107.35 431 72.7 431 37 C300.98 37 170.96 37 37 37 C37 125.44 37 213.88 37 305 C140.62 305 244.24 305 351 305 C351 317.21 351 329.42 351 342 C318.33 342 285.66 342 252 342 C252 356.19 252 370.38 252 385 C276.42 385 300.84 385 326 385 C326 396.88 326 408.76 326 421 C265.28 421 204.56 421 142 421 C142 409.12 142 397.24 142 385 C166.42 385 190.84 385 216 385 C216 370.81 216 356.62 216 342 C144.72 342 73.44 342 0 342 C0 229.14 0 116.28 0 0 Z " fill="#FEFEFC" transform="translate(280,552)"/>
<path d="M0 0 C8.91 0 17.82 0 27 0 C27 323.4 27 646.8 27 980 C18.09 980 9.18 980 0 980 C0 656.6 0 333.2 0 0 Z " fill="#FEFDFA" transform="translate(1031,260)"/>
<path d="M0 0 C36.3 0 72.6 0 110 0 C110 67.98 110 135.96 110 206 C73.7 206 37.4 206 0 206 C0 138.02 0 70.04 0 0 Z " fill="#F5BA42" transform="translate(702,731)"/>
<path d="M0 0 C15.51 0 31.02 0 47 0 C47 11.88 47 23.76 47 36 C31.49 36 15.98 36 0 36 C0 24.12 0 12.24 0 0 Z " fill="#FFFFFF" transform="translate(734,876)"/>
</svg>
